<mxfile host="app.diagrams.net" modified="2022-06-14T14:28:30.392Z" agent="5.0 (X11; Linux x86_64) AppleWebKit/537.36 (KHTML, like Gecko) Chrome/102.0.5005.99 Safari/537.36" etag="dpqua5wS5aQj3lVcL3VW" version="20.0.1" type="github">
  <diagram id="m7s7NepcccpUyqcfbQD8" name="Page-1">
    <mxGraphModel dx="2005" dy="1097" grid="1" gridSize="10" guides="1" tooltips="1" connect="1" arrows="1" fold="1" page="1" pageScale="1" pageWidth="850" pageHeight="1100" math="0" shadow="0">
      <root>
        <mxCell id="0" />
        <mxCell id="1" parent="0" />
        <mxCell id="25TPMI5mJm6kDSHspBWJ-11" style="rounded=0;orthogonalLoop=1;jettySize=auto;html=1;shadow=1;" edge="1" parent="1" source="25TPMI5mJm6kDSHspBWJ-1" target="25TPMI5mJm6kDSHspBWJ-7">
          <mxGeometry relative="1" as="geometry" />
        </mxCell>
        <mxCell id="25TPMI5mJm6kDSHspBWJ-19" style="edgeStyle=none;rounded=0;orthogonalLoop=1;jettySize=auto;html=1;shadow=1;" edge="1" parent="1" source="25TPMI5mJm6kDSHspBWJ-1" target="25TPMI5mJm6kDSHspBWJ-8">
          <mxGeometry relative="1" as="geometry" />
        </mxCell>
        <mxCell id="25TPMI5mJm6kDSHspBWJ-20" style="edgeStyle=none;rounded=0;orthogonalLoop=1;jettySize=auto;html=1;shadow=1;" edge="1" parent="1" source="25TPMI5mJm6kDSHspBWJ-1" target="25TPMI5mJm6kDSHspBWJ-9">
          <mxGeometry relative="1" as="geometry" />
        </mxCell>
        <mxCell id="25TPMI5mJm6kDSHspBWJ-21" style="edgeStyle=none;rounded=0;orthogonalLoop=1;jettySize=auto;html=1;shadow=1;" edge="1" parent="1" source="25TPMI5mJm6kDSHspBWJ-1" target="25TPMI5mJm6kDSHspBWJ-10">
          <mxGeometry relative="1" as="geometry" />
        </mxCell>
        <mxCell id="25TPMI5mJm6kDSHspBWJ-1" value="" style="ellipse;whiteSpace=wrap;html=1;fillColor=#ffe6cc;strokeColor=#d79b00;shadow=1;" vertex="1" parent="1">
          <mxGeometry x="170" y="170" width="60" height="60" as="geometry" />
        </mxCell>
        <mxCell id="25TPMI5mJm6kDSHspBWJ-12" style="edgeStyle=none;rounded=0;orthogonalLoop=1;jettySize=auto;html=1;shadow=1;" edge="1" parent="1" source="25TPMI5mJm6kDSHspBWJ-2" target="25TPMI5mJm6kDSHspBWJ-7">
          <mxGeometry relative="1" as="geometry" />
        </mxCell>
        <mxCell id="25TPMI5mJm6kDSHspBWJ-14" style="edgeStyle=none;rounded=0;orthogonalLoop=1;jettySize=auto;html=1;shadow=1;" edge="1" parent="1" source="25TPMI5mJm6kDSHspBWJ-2" target="25TPMI5mJm6kDSHspBWJ-8">
          <mxGeometry relative="1" as="geometry">
            <mxPoint x="252.28285775686834" y="226.89917637792598" as="sourcePoint" />
            <mxPoint x="324.58686552242796" y="372.90191058184337" as="targetPoint" />
          </mxGeometry>
        </mxCell>
        <mxCell id="25TPMI5mJm6kDSHspBWJ-22" style="edgeStyle=none;rounded=0;orthogonalLoop=1;jettySize=auto;html=1;shadow=1;" edge="1" parent="1" source="25TPMI5mJm6kDSHspBWJ-2" target="25TPMI5mJm6kDSHspBWJ-9">
          <mxGeometry relative="1" as="geometry" />
        </mxCell>
        <mxCell id="25TPMI5mJm6kDSHspBWJ-23" style="edgeStyle=none;rounded=0;orthogonalLoop=1;jettySize=auto;html=1;entryX=0;entryY=0;entryDx=0;entryDy=0;shadow=1;" edge="1" parent="1" source="25TPMI5mJm6kDSHspBWJ-2" target="25TPMI5mJm6kDSHspBWJ-10">
          <mxGeometry relative="1" as="geometry" />
        </mxCell>
        <mxCell id="25TPMI5mJm6kDSHspBWJ-2" value="" style="ellipse;whiteSpace=wrap;html=1;fillColor=#ffe6cc;strokeColor=#d79b00;shadow=1;" vertex="1" parent="1">
          <mxGeometry x="239" y="170" width="60" height="60" as="geometry" />
        </mxCell>
        <mxCell id="25TPMI5mJm6kDSHspBWJ-13" style="edgeStyle=none;rounded=0;orthogonalLoop=1;jettySize=auto;html=1;shadow=1;" edge="1" parent="1" source="25TPMI5mJm6kDSHspBWJ-3" target="25TPMI5mJm6kDSHspBWJ-7">
          <mxGeometry relative="1" as="geometry" />
        </mxCell>
        <mxCell id="25TPMI5mJm6kDSHspBWJ-15" style="edgeStyle=none;rounded=0;orthogonalLoop=1;jettySize=auto;html=1;entryX=0.5;entryY=0;entryDx=0;entryDy=0;shadow=1;" edge="1" parent="1" source="25TPMI5mJm6kDSHspBWJ-3" target="25TPMI5mJm6kDSHspBWJ-8">
          <mxGeometry relative="1" as="geometry" />
        </mxCell>
        <mxCell id="25TPMI5mJm6kDSHspBWJ-33" style="edgeStyle=none;rounded=0;orthogonalLoop=1;jettySize=auto;html=1;shadow=1;" edge="1" parent="1" source="25TPMI5mJm6kDSHspBWJ-3" target="25TPMI5mJm6kDSHspBWJ-9">
          <mxGeometry relative="1" as="geometry" />
        </mxCell>
        <mxCell id="25TPMI5mJm6kDSHspBWJ-34" style="edgeStyle=none;rounded=0;orthogonalLoop=1;jettySize=auto;html=1;entryX=0;entryY=0;entryDx=0;entryDy=0;shadow=1;" edge="1" parent="1" source="25TPMI5mJm6kDSHspBWJ-3" target="25TPMI5mJm6kDSHspBWJ-10">
          <mxGeometry relative="1" as="geometry" />
        </mxCell>
        <mxCell id="25TPMI5mJm6kDSHspBWJ-3" value="" style="ellipse;whiteSpace=wrap;html=1;fillColor=#ffe6cc;strokeColor=#d79b00;shadow=1;" vertex="1" parent="1">
          <mxGeometry x="308" y="170" width="60" height="60" as="geometry" />
        </mxCell>
        <mxCell id="25TPMI5mJm6kDSHspBWJ-16" style="edgeStyle=none;rounded=0;orthogonalLoop=1;jettySize=auto;html=1;shadow=1;" edge="1" parent="1" source="25TPMI5mJm6kDSHspBWJ-4" target="25TPMI5mJm6kDSHspBWJ-8">
          <mxGeometry relative="1" as="geometry" />
        </mxCell>
        <mxCell id="25TPMI5mJm6kDSHspBWJ-17" style="edgeStyle=none;rounded=0;orthogonalLoop=1;jettySize=auto;html=1;shadow=1;" edge="1" parent="1" source="25TPMI5mJm6kDSHspBWJ-4" target="25TPMI5mJm6kDSHspBWJ-9">
          <mxGeometry relative="1" as="geometry" />
        </mxCell>
        <mxCell id="25TPMI5mJm6kDSHspBWJ-18" style="edgeStyle=none;rounded=0;orthogonalLoop=1;jettySize=auto;html=1;entryX=1;entryY=0;entryDx=0;entryDy=0;shadow=1;" edge="1" parent="1" source="25TPMI5mJm6kDSHspBWJ-4" target="25TPMI5mJm6kDSHspBWJ-7">
          <mxGeometry relative="1" as="geometry" />
        </mxCell>
        <mxCell id="25TPMI5mJm6kDSHspBWJ-24" style="edgeStyle=none;rounded=0;orthogonalLoop=1;jettySize=auto;html=1;shadow=1;" edge="1" parent="1" source="25TPMI5mJm6kDSHspBWJ-4" target="25TPMI5mJm6kDSHspBWJ-10">
          <mxGeometry relative="1" as="geometry" />
        </mxCell>
        <mxCell id="25TPMI5mJm6kDSHspBWJ-4" value="" style="ellipse;whiteSpace=wrap;html=1;fillColor=#ffe6cc;strokeColor=#d79b00;shadow=1;" vertex="1" parent="1">
          <mxGeometry x="375" y="170" width="60" height="60" as="geometry" />
        </mxCell>
        <mxCell id="25TPMI5mJm6kDSHspBWJ-25" style="edgeStyle=none;rounded=0;orthogonalLoop=1;jettySize=auto;html=1;entryX=0.5;entryY=0;entryDx=0;entryDy=0;shadow=1;" edge="1" parent="1" source="25TPMI5mJm6kDSHspBWJ-5" target="25TPMI5mJm6kDSHspBWJ-10">
          <mxGeometry relative="1" as="geometry" />
        </mxCell>
        <mxCell id="25TPMI5mJm6kDSHspBWJ-26" style="edgeStyle=none;rounded=0;orthogonalLoop=1;jettySize=auto;html=1;entryX=1;entryY=0;entryDx=0;entryDy=0;shadow=1;" edge="1" parent="1" source="25TPMI5mJm6kDSHspBWJ-5" target="25TPMI5mJm6kDSHspBWJ-9">
          <mxGeometry relative="1" as="geometry">
            <mxPoint x="460" y="350" as="targetPoint" />
          </mxGeometry>
        </mxCell>
        <mxCell id="25TPMI5mJm6kDSHspBWJ-27" style="edgeStyle=none;rounded=0;orthogonalLoop=1;jettySize=auto;html=1;entryX=1;entryY=0;entryDx=0;entryDy=0;shadow=1;" edge="1" parent="1" source="25TPMI5mJm6kDSHspBWJ-5" target="25TPMI5mJm6kDSHspBWJ-8">
          <mxGeometry relative="1" as="geometry" />
        </mxCell>
        <mxCell id="25TPMI5mJm6kDSHspBWJ-28" style="edgeStyle=none;rounded=0;orthogonalLoop=1;jettySize=auto;html=1;entryX=0.933;entryY=0.234;entryDx=0;entryDy=0;entryPerimeter=0;shadow=1;" edge="1" parent="1" source="25TPMI5mJm6kDSHspBWJ-5" target="25TPMI5mJm6kDSHspBWJ-7">
          <mxGeometry relative="1" as="geometry">
            <mxPoint x="260" y="370" as="targetPoint" />
          </mxGeometry>
        </mxCell>
        <mxCell id="25TPMI5mJm6kDSHspBWJ-5" value="" style="ellipse;whiteSpace=wrap;html=1;fillColor=#ffe6cc;strokeColor=#d79b00;shadow=1;" vertex="1" parent="1">
          <mxGeometry x="444" y="170" width="60" height="60" as="geometry" />
        </mxCell>
        <mxCell id="25TPMI5mJm6kDSHspBWJ-29" style="edgeStyle=none;rounded=0;orthogonalLoop=1;jettySize=auto;html=1;shadow=1;" edge="1" parent="1" source="25TPMI5mJm6kDSHspBWJ-6" target="25TPMI5mJm6kDSHspBWJ-10">
          <mxGeometry relative="1" as="geometry" />
        </mxCell>
        <mxCell id="25TPMI5mJm6kDSHspBWJ-30" style="edgeStyle=none;rounded=0;orthogonalLoop=1;jettySize=auto;html=1;entryX=0.942;entryY=0.207;entryDx=0;entryDy=0;entryPerimeter=0;shadow=1;" edge="1" parent="1" source="25TPMI5mJm6kDSHspBWJ-6" target="25TPMI5mJm6kDSHspBWJ-9">
          <mxGeometry relative="1" as="geometry" />
        </mxCell>
        <mxCell id="25TPMI5mJm6kDSHspBWJ-31" style="edgeStyle=none;rounded=0;orthogonalLoop=1;jettySize=auto;html=1;entryX=1;entryY=0;entryDx=0;entryDy=0;shadow=1;" edge="1" parent="1" source="25TPMI5mJm6kDSHspBWJ-6" target="25TPMI5mJm6kDSHspBWJ-8">
          <mxGeometry relative="1" as="geometry" />
        </mxCell>
        <mxCell id="25TPMI5mJm6kDSHspBWJ-32" style="edgeStyle=none;rounded=0;orthogonalLoop=1;jettySize=auto;html=1;entryX=1;entryY=0;entryDx=0;entryDy=0;shadow=1;" edge="1" parent="1" source="25TPMI5mJm6kDSHspBWJ-6" target="25TPMI5mJm6kDSHspBWJ-7">
          <mxGeometry relative="1" as="geometry" />
        </mxCell>
        <mxCell id="25TPMI5mJm6kDSHspBWJ-6" value="" style="ellipse;whiteSpace=wrap;html=1;fillColor=#ffe6cc;strokeColor=#d79b00;shadow=1;" vertex="1" parent="1">
          <mxGeometry x="512" y="170" width="60" height="60" as="geometry" />
        </mxCell>
        <mxCell id="25TPMI5mJm6kDSHspBWJ-36" style="edgeStyle=none;rounded=0;orthogonalLoop=1;jettySize=auto;html=1;entryX=0;entryY=0;entryDx=0;entryDy=0;shadow=1;" edge="1" parent="1" source="25TPMI5mJm6kDSHspBWJ-7" target="25TPMI5mJm6kDSHspBWJ-35">
          <mxGeometry relative="1" as="geometry" />
        </mxCell>
        <mxCell id="25TPMI5mJm6kDSHspBWJ-7" value="" style="ellipse;whiteSpace=wrap;html=1;fillColor=#ffe6cc;strokeColor=#d79b00;shadow=1;" vertex="1" parent="1">
          <mxGeometry x="226" y="314" width="56" height="56" as="geometry" />
        </mxCell>
        <mxCell id="25TPMI5mJm6kDSHspBWJ-37" style="edgeStyle=none;rounded=0;orthogonalLoop=1;jettySize=auto;html=1;shadow=1;" edge="1" parent="1" source="25TPMI5mJm6kDSHspBWJ-8" target="25TPMI5mJm6kDSHspBWJ-35">
          <mxGeometry relative="1" as="geometry" />
        </mxCell>
        <mxCell id="25TPMI5mJm6kDSHspBWJ-8" value="" style="ellipse;whiteSpace=wrap;html=1;fillColor=#ffe6cc;strokeColor=#d79b00;shadow=1;" vertex="1" parent="1">
          <mxGeometry x="309" y="315" width="56" height="56" as="geometry" />
        </mxCell>
        <mxCell id="25TPMI5mJm6kDSHspBWJ-38" style="edgeStyle=none;rounded=0;orthogonalLoop=1;jettySize=auto;html=1;shadow=1;" edge="1" parent="1" source="25TPMI5mJm6kDSHspBWJ-9" target="25TPMI5mJm6kDSHspBWJ-35">
          <mxGeometry relative="1" as="geometry" />
        </mxCell>
        <mxCell id="25TPMI5mJm6kDSHspBWJ-9" value="" style="ellipse;whiteSpace=wrap;html=1;fillColor=#ffe6cc;strokeColor=#d79b00;shadow=1;" vertex="1" parent="1">
          <mxGeometry x="384" y="315" width="56" height="56" as="geometry" />
        </mxCell>
        <mxCell id="25TPMI5mJm6kDSHspBWJ-39" style="edgeStyle=none;rounded=0;orthogonalLoop=1;jettySize=auto;html=1;shadow=1;" edge="1" parent="1" source="25TPMI5mJm6kDSHspBWJ-10" target="25TPMI5mJm6kDSHspBWJ-35">
          <mxGeometry relative="1" as="geometry" />
        </mxCell>
        <mxCell id="25TPMI5mJm6kDSHspBWJ-10" value="" style="ellipse;whiteSpace=wrap;html=1;fillColor=#ffe6cc;strokeColor=#d79b00;shadow=1;" vertex="1" parent="1">
          <mxGeometry x="459" y="315" width="56" height="56" as="geometry" />
        </mxCell>
        <mxCell id="25TPMI5mJm6kDSHspBWJ-35" value="" style="ellipse;whiteSpace=wrap;html=1;fillColor=#ffe6cc;strokeColor=#d79b00;shadow=1;" vertex="1" parent="1">
          <mxGeometry x="337" y="407" width="60" height="60" as="geometry" />
        </mxCell>
        <mxCell id="25TPMI5mJm6kDSHspBWJ-79" style="rounded=0;orthogonalLoop=1;jettySize=auto;html=1;shadow=1;" edge="1" parent="1" source="25TPMI5mJm6kDSHspBWJ-83" target="25TPMI5mJm6kDSHspBWJ-110">
          <mxGeometry relative="1" as="geometry" />
        </mxCell>
        <mxCell id="25TPMI5mJm6kDSHspBWJ-82" style="edgeStyle=none;rounded=0;orthogonalLoop=1;jettySize=auto;html=1;shadow=1;" edge="1" parent="1" source="25TPMI5mJm6kDSHspBWJ-83" target="25TPMI5mJm6kDSHspBWJ-116">
          <mxGeometry relative="1" as="geometry" />
        </mxCell>
        <mxCell id="25TPMI5mJm6kDSHspBWJ-83" value="" style="ellipse;whiteSpace=wrap;html=1;fillColor=#ffe6cc;strokeColor=#d79b00;shadow=1;" vertex="1" parent="1">
          <mxGeometry x="720" y="170" width="60" height="60" as="geometry" />
        </mxCell>
        <mxCell id="25TPMI5mJm6kDSHspBWJ-87" style="edgeStyle=none;rounded=0;orthogonalLoop=1;jettySize=auto;html=1;entryX=0;entryY=0;entryDx=0;entryDy=0;shadow=1;" edge="1" parent="1" source="25TPMI5mJm6kDSHspBWJ-88" target="25TPMI5mJm6kDSHspBWJ-116">
          <mxGeometry relative="1" as="geometry" />
        </mxCell>
        <mxCell id="25TPMI5mJm6kDSHspBWJ-88" value="" style="ellipse;whiteSpace=wrap;html=1;fillColor=#ffe6cc;strokeColor=#d79b00;shadow=1;" vertex="1" parent="1">
          <mxGeometry x="789" y="170" width="60" height="60" as="geometry" />
        </mxCell>
        <mxCell id="25TPMI5mJm6kDSHspBWJ-91" style="edgeStyle=none;rounded=0;orthogonalLoop=1;jettySize=auto;html=1;shadow=1;" edge="1" parent="1" source="25TPMI5mJm6kDSHspBWJ-93" target="25TPMI5mJm6kDSHspBWJ-114">
          <mxGeometry relative="1" as="geometry" />
        </mxCell>
        <mxCell id="25TPMI5mJm6kDSHspBWJ-93" value="" style="ellipse;whiteSpace=wrap;html=1;fillColor=#ffe6cc;strokeColor=#d79b00;shadow=1;" vertex="1" parent="1">
          <mxGeometry x="858" y="170" width="60" height="60" as="geometry" />
        </mxCell>
        <mxCell id="25TPMI5mJm6kDSHspBWJ-96" style="edgeStyle=none;rounded=0;orthogonalLoop=1;jettySize=auto;html=1;entryX=1;entryY=0;entryDx=0;entryDy=0;shadow=1;" edge="1" parent="1" source="25TPMI5mJm6kDSHspBWJ-98" target="25TPMI5mJm6kDSHspBWJ-110">
          <mxGeometry relative="1" as="geometry" />
        </mxCell>
        <mxCell id="25TPMI5mJm6kDSHspBWJ-97" style="edgeStyle=none;rounded=0;orthogonalLoop=1;jettySize=auto;html=1;shadow=1;" edge="1" parent="1" source="25TPMI5mJm6kDSHspBWJ-98" target="25TPMI5mJm6kDSHspBWJ-116">
          <mxGeometry relative="1" as="geometry" />
        </mxCell>
        <mxCell id="25TPMI5mJm6kDSHspBWJ-98" value="" style="ellipse;whiteSpace=wrap;html=1;fillColor=#ffe6cc;strokeColor=#d79b00;shadow=1;" vertex="1" parent="1">
          <mxGeometry x="925" y="170" width="60" height="60" as="geometry" />
        </mxCell>
        <mxCell id="25TPMI5mJm6kDSHspBWJ-100" style="edgeStyle=none;rounded=0;orthogonalLoop=1;jettySize=auto;html=1;entryX=1;entryY=0;entryDx=0;entryDy=0;shadow=1;" edge="1" parent="1" source="25TPMI5mJm6kDSHspBWJ-103" target="25TPMI5mJm6kDSHspBWJ-114">
          <mxGeometry relative="1" as="geometry">
            <mxPoint x="1010" y="350" as="targetPoint" />
          </mxGeometry>
        </mxCell>
        <mxCell id="25TPMI5mJm6kDSHspBWJ-103" value="" style="ellipse;whiteSpace=wrap;html=1;fillColor=#ffe6cc;strokeColor=#d79b00;shadow=1;" vertex="1" parent="1">
          <mxGeometry x="994" y="170" width="60" height="60" as="geometry" />
        </mxCell>
        <mxCell id="25TPMI5mJm6kDSHspBWJ-104" style="edgeStyle=none;rounded=0;orthogonalLoop=1;jettySize=auto;html=1;shadow=1;" edge="1" parent="1" source="25TPMI5mJm6kDSHspBWJ-108" target="25TPMI5mJm6kDSHspBWJ-116">
          <mxGeometry relative="1" as="geometry" />
        </mxCell>
        <mxCell id="25TPMI5mJm6kDSHspBWJ-105" style="edgeStyle=none;rounded=0;orthogonalLoop=1;jettySize=auto;html=1;entryX=0.942;entryY=0.207;entryDx=0;entryDy=0;entryPerimeter=0;shadow=1;" edge="1" parent="1" source="25TPMI5mJm6kDSHspBWJ-108" target="25TPMI5mJm6kDSHspBWJ-114">
          <mxGeometry relative="1" as="geometry" />
        </mxCell>
        <mxCell id="25TPMI5mJm6kDSHspBWJ-108" value="" style="ellipse;whiteSpace=wrap;html=1;fillColor=#ffe6cc;strokeColor=#d79b00;shadow=1;" vertex="1" parent="1">
          <mxGeometry x="1062" y="170" width="60" height="60" as="geometry" />
        </mxCell>
        <mxCell id="25TPMI5mJm6kDSHspBWJ-109" style="edgeStyle=none;rounded=0;orthogonalLoop=1;jettySize=auto;html=1;entryX=0;entryY=0;entryDx=0;entryDy=0;shadow=1;" edge="1" parent="1" source="25TPMI5mJm6kDSHspBWJ-110" target="25TPMI5mJm6kDSHspBWJ-117">
          <mxGeometry relative="1" as="geometry" />
        </mxCell>
        <mxCell id="25TPMI5mJm6kDSHspBWJ-110" value="" style="ellipse;whiteSpace=wrap;html=1;fillColor=#ffe6cc;strokeColor=#d79b00;shadow=1;" vertex="1" parent="1">
          <mxGeometry x="776" y="314" width="56" height="56" as="geometry" />
        </mxCell>
        <mxCell id="25TPMI5mJm6kDSHspBWJ-113" style="edgeStyle=none;rounded=0;orthogonalLoop=1;jettySize=auto;html=1;shadow=1;" edge="1" parent="1" source="25TPMI5mJm6kDSHspBWJ-114" target="25TPMI5mJm6kDSHspBWJ-117">
          <mxGeometry relative="1" as="geometry" />
        </mxCell>
        <mxCell id="25TPMI5mJm6kDSHspBWJ-114" value="" style="ellipse;whiteSpace=wrap;html=1;fillColor=#ffe6cc;strokeColor=#d79b00;shadow=1;" vertex="1" parent="1">
          <mxGeometry x="934" y="315" width="56" height="56" as="geometry" />
        </mxCell>
        <mxCell id="25TPMI5mJm6kDSHspBWJ-115" style="edgeStyle=none;rounded=0;orthogonalLoop=1;jettySize=auto;html=1;shadow=1;" edge="1" parent="1" source="25TPMI5mJm6kDSHspBWJ-116" target="25TPMI5mJm6kDSHspBWJ-117">
          <mxGeometry relative="1" as="geometry" />
        </mxCell>
        <mxCell id="25TPMI5mJm6kDSHspBWJ-116" value="" style="ellipse;whiteSpace=wrap;html=1;fillColor=#ffe6cc;strokeColor=#d79b00;shadow=1;" vertex="1" parent="1">
          <mxGeometry x="1009" y="315" width="56" height="56" as="geometry" />
        </mxCell>
        <mxCell id="25TPMI5mJm6kDSHspBWJ-117" value="" style="ellipse;whiteSpace=wrap;html=1;fillColor=#ffe6cc;strokeColor=#d79b00;shadow=1;" vertex="1" parent="1">
          <mxGeometry x="887" y="407" width="60" height="60" as="geometry" />
        </mxCell>
        <mxCell id="25TPMI5mJm6kDSHspBWJ-118" value="" style="shape=flexArrow;endArrow=classic;html=1;rounded=0;strokeWidth=2;shadow=1;" edge="1" parent="1">
          <mxGeometry width="50" height="50" relative="1" as="geometry">
            <mxPoint x="580" y="314" as="sourcePoint" />
            <mxPoint x="720" y="314" as="targetPoint" />
          </mxGeometry>
        </mxCell>
        <mxCell id="25TPMI5mJm6kDSHspBWJ-119" value="&lt;font style=&quot;font-size: 20px;&quot;&gt;&lt;b&gt;Pruning&lt;/b&gt;&lt;/font&gt;" style="edgeLabel;html=1;align=center;verticalAlign=middle;resizable=0;points=[];" vertex="1" connectable="0" parent="25TPMI5mJm6kDSHspBWJ-118">
          <mxGeometry x="0.1335" relative="1" as="geometry">
            <mxPoint x="-17" y="-24" as="offset" />
          </mxGeometry>
        </mxCell>
      </root>
    </mxGraphModel>
  </diagram>
</mxfile>
